<svg xmlns="http://www.w3.org/2000/svg" xmlns:xlink="http://www.w3.org/1999/xlink" width="714.178" height="546.108" viewBox="0 0 714.178 546.108">
  <defs>
    <clipPath id="clip-path">
      <path id="Tracé_2" data-name="Tracé 2" d="M571.8,571.6H536.4L532,505h44.1Z" transform="translate(-528.8 -523.7)"/>
    </clipPath>
  </defs>
  <g id="javascript-coding-language" transform="translate(-48.152 -120.567)">
    <path id="XMLID_237_" d="M197.1,622.2a60.072,60.072,0,0,1-22.5-39.6c-7-52.5,5.2-169.3,115.6-267.1,134-118.7,274-110.5,341.8-80.7,74.7,32.8,122.1,142.8,129.8,240.8,5.8,73.7-36.3,137.1-107.5,157.1C534.8,666.2,287,692.7,197.1,622.2Z" fill="#2a94f4" opacity="0.09"/>
    <path id="XMLID_521_" d="M635.8,543a62.428,62.428,0,0,0,23.4-41.2c7.2-54.6-5.4-176-120.2-277.7C399.6,100.7,254.1,109.2,183.6,140.2c-77.7,34.1-127,148.5-134.9,250.4-6,76.6,37.7,142.6,111.8,163.3C284.6,588.9,542.3,616.3,635.8,543Z" fill="#cce9ff" opacity="0.3"/>
    <g id="XMLID_36_">
      <path id="XMLID_130_" d="M608.2,449.6H187.9a16.047,16.047,0,0,1-16-16V180.4a16.047,16.047,0,0,1,16-16H608.2a16.047,16.047,0,0,1,16,16V433.6A16.047,16.047,0,0,1,608.2,449.6Z" fill="#0e538c"/>
    </g>
    <g id="XMLID_62_">
      <path id="XMLID_129_" d="M624.2,215.6H171.9V180.5a16.047,16.047,0,0,1,16-16H608.2a16.047,16.047,0,0,1,16,16v35.1Z" fill="#2a94f4"/>
    </g>
    <g id="XMLID_90_">
      <g id="XMLID_85_">
        <path id="XMLID_127_" d="M237.3,247H199.1a3.506,3.506,0,0,1,0-7h38.2a3.508,3.508,0,0,1,3.3,3.5A3.438,3.438,0,0,1,237.3,247Z" fill="#ffbe55"/>
      </g>
      <g id="XMLID_91_">
        <path id="XMLID_126_" d="M250.6,263H199.1c-1.8,0-3.3-.7-3.3-2.5s1.5-2.5,3.3-2.5h51.5c1.8,0,3.3.7,3.3,2.5S252.5,263,250.6,263Z" fill="#ffbe55"/>
      </g>
      <g id="XMLID_100_">
        <path id="XMLID_125_" d="M250.6,330H199.1a3.506,3.506,0,0,1,0-7h51.5a3.508,3.508,0,0,1,3.3,3.5A3.438,3.438,0,0,1,250.6,330Z" fill="#ffbe55"/>
      </g>
      <g id="XMLID_101_">
        <path id="XMLID_124_" d="M232.3,346H199c-1.8,0-3.3-.7-3.3-2.5s1.5-2.5,3.3-2.5h33.3c1.8,0,3.3.7,3.3,2.5S234.2,346,232.3,346Z" fill="#ffbe55"/>
      </g>
      <g id="XMLID_106_">
        <path id="XMLID_123_" d="M232.3,397H199a3.506,3.506,0,0,1,0-7h33.3a3.508,3.508,0,0,1,3.3,3.5A3.438,3.438,0,0,1,232.3,397Z" fill="#ffbe55"/>
      </g>
      <g id="XMLID_107_">
        <path id="XMLID_122_" d="M232.3,413H199a3.014,3.014,0,1,1,0-6h33.3a3.083,3.083,0,0,1,3.3,3A3.028,3.028,0,0,1,232.3,413Z" fill="#ffbe55"/>
      </g>
      <g id="XMLID_92_">
        <path id="XMLID_121_" d="M283.9,281H232.4a3.506,3.506,0,0,1,0-7h51.5a3.506,3.506,0,0,1,0,7Z" fill="#2a94f4"/>
      </g>
      <g id="XMLID_96_">
        <path id="XMLID_120_" d="M352.1,281H300.6a3.506,3.506,0,0,1,0-7h51.5a3.506,3.506,0,0,1,0,7Z" fill="#2a94f4"/>
      </g>
      <g id="XMLID_97_">
        <path id="XMLID_119_" d="M498.4,281H446.9a3.506,3.506,0,0,1,0-7h51.5a3.506,3.506,0,0,1,0,7Z" fill="#2a94f4"/>
      </g>
      <g id="XMLID_98_">
        <path id="XMLID_118_" d="M563.2,281H511.7a3.506,3.506,0,0,1,0-7h51.5a3.508,3.508,0,0,1,3.3,3.5A3.438,3.438,0,0,1,563.2,281Z" fill="#2a94f4"/>
      </g>
      <g id="XMLID_99_">
        <path id="XMLID_117_" d="M493.4,297H441.9a3.014,3.014,0,1,1,0-6h51.5a3.014,3.014,0,1,1,0,6Z" fill="#2a94f4"/>
      </g>
      <g id="XMLID_104_">
        <path id="XMLID_116_" d="M493.4,362H441.9a3.506,3.506,0,0,1,0-7h51.5a3.506,3.506,0,0,1,0,7Z" fill="#2a94f4"/>
      </g>
      <g id="XMLID_105_">
        <path id="XMLID_115_" d="M531.6,378H480.1c-1.8,0-3.3-.7-3.3-2.5s1.5-2.5,3.3-2.5h51.5c1.8,0,3.3.7,3.3,2.5S533.5,378,531.6,378Z" fill="#2a94f4"/>
      </g>
      <g id="XMLID_93_">
        <path id="XMLID_114_" d="M277.2,297H232.3a3.014,3.014,0,1,1,0-6h44.9a3.083,3.083,0,0,1,3.3,3A3.028,3.028,0,0,1,277.2,297Z" fill="#2a94f4"/>
      </g>
      <g id="XMLID_95_">
        <path id="XMLID_113_" d="M333.8,297H288.9a3.014,3.014,0,1,1,0-6h44.9a3.014,3.014,0,1,1,0,6Z" fill="#2a94f4"/>
      </g>
      <g id="XMLID_94_">
        <path id="XMLID_112_" d="M363.7,314H232.3a3.506,3.506,0,0,1,0-7H363.7a3.506,3.506,0,0,1,0,7Z" fill="#2a94f4"/>
      </g>
      <g id="XMLID_103_">
        <path id="XMLID_111_" d="M345.4,362H232.3a3.506,3.506,0,0,1,0-7H345.4a3.506,3.506,0,0,1,0,7Z" fill="#2a94f4"/>
      </g>
      <g id="XMLID_102_">
        <path id="XMLID_110_" d="M363.7,378H232.3c-1.8,0-3.3-.7-3.3-2.5s1.5-2.5,3.3-2.5H363.7c1.8,0,3.3.7,3.3,2.5S365.5,378,363.7,378Z" fill="#2a94f4"/>
      </g>
    </g>
    <path id="XMLID_35_" d="M357,305.8s-24-21.8-12.2-45a27.09,27.09,0,0,0,2.7-12.8,17.444,17.444,0,0,1,5.7-13.4c9.3-9,21.3-16.7,39.1-16.1s31.5,6,38.3,0c5.9-5.1,7.3-1.8,6.4,7.3a11.415,11.415,0,0,0,2.4,8.2,23.831,23.831,0,0,1,5.6,14.4,30.061,30.061,0,0,0,2.5,11.5c3.8,8.5,7.6,25.9-9.8,47.1" fill="#192541"/>
    <g id="XMLID_52_">
      <path id="Tracé_1" data-name="Tracé 1" d="M323.3,511.4c.5-9.1.4-18.2,0-27.3-1.7-33.2-.4-54.1-.4-68.6,0-8.7,5.6-37,19.6-38.6,15.3-1.8,37.7-6.1,72.7-4,47.5,2.8,50.6,13.6,50.4,44.2-.1,11.4,3,160.3,3,160.3-50.4,19.3-144.2,2-144.2,2C328.3,571.9,321.3,547.1,323.3,511.4Z"/>
    </g>
    <g id="XMLID_49_">
      <path id="XMLID_33_" d="M493.1,445.4s21.8,49.6,17.1,79.4c-3.2,20.3-50.2,36.5-64.1,33.1s-12.3-6.5.5-12.9,39.7-14.9,30.1-38.9c-9.5-24-25.8-73.3-25.8-73.3Z" fill="#fcd2b1"/>
      <path id="XMLID_32_" d="M447.1,377.6s17.7.7,31.6,17.3c4.1,4.9,5.6,12.7,9.1,20.5,2.6,5.8,1.1,12,2.9,19.6,0,0,9.1,22,9.1,24.5,0,0-35,5.9-41.1,9.8C452.6,473.1,434.1,377.4,447.1,377.6Z"/>
    </g>
    <g id="XMLID_46_">
      <path id="XMLID_31_" d="M299.8,441.8s-23.7,54.5-19,84.3c3.2,20.3,46.4,36.6,60.3,33.2s17.4-8.4,4.6-14.8-43.9-19.9-34.4-44c9.5-24,28-67.8,28-67.8Z" fill="#fcd2b1"/>
      <path id="XMLID_30_" d="M340.9,377.6s-18.5,1-29.6,9.4c-6.3,4.8-7.7,12.4-8.4,22.4-.7,10.8-6.1,19.6-9.1,30.8a180.071,180.071,0,0,0-4,20s28.6,1.8,40.1,5.3C336.9,467.7,353.9,377.4,340.9,377.6Z"/>
    </g>
    <g id="XMLID_37_">
      <g id="XMLID_43_">
        <g id="XMLID_58_">
          <path id="XMLID_60_" d="M414.9,375.4V333.9H372.2v40.2s1.3,27,22.7,27.3C411.5,401.7,414.9,375.4,414.9,375.4Z" fill="#fcd2b1"/>
          <path id="XMLID_59_" d="M414.9,354.9s-4.4,12.7-20.1,12.7c-10.3,0-22.5-11.5-22.5-15.3l-.1-12.6,42.7,2.3Z" fill="#f4c6a4"/>
        </g>
      </g>
      <ellipse id="XMLID_24_" cx="10.4" cy="13.4" rx="10.4" ry="13.4" transform="translate(369.739 316.699) rotate(157.61)" fill="#fcd2b1"/>
      <ellipse id="XMLID_23_" cx="10.4" cy="13.4" rx="10.4" ry="13.4" transform="matrix(-0.903, -0.431, 0.431, -0.903, 442.145, 324.838)" fill="#fcd2b1"/>
      <path id="XMLID_22_" d="M412.5,332.1c-5.4,3.6-17.9,7-31.7,1a1.343,1.343,0,0,0-1.7,1.8c1.8,5.9,7.3,12.9,19.5,12.7,10.4-.2,14.5-8.9,15.9-13.5C414.8,332.9,413.5,331.4,412.5,332.1Z" fill="#fff"/>
    </g>
    <rect id="XMLID_2_" width="150.9" height="110.9" transform="translate(319.5 455.8)" fill="#bbbcbc"/>
    <rect id="XMLID_20_" width="156.2" height="5.4" transform="translate(316.9 566.7)" fill="#878787"/>
    <rect id="XMLID_21_" width="406.8" height="17.5" transform="translate(196.2 572)" fill="#192541"/>
    <g id="XMLID_40_">
      <g id="XMLID_39_">
        <rect id="XMLID_156_" width="47.3" height="46.9" transform="matrix(-0.994, 0.106, -0.106, -0.994, 452.255, 529.041)" fill="#ffbe55"/>
        <path id="XMLID_153_" d="M446.6,483.2l4.8,45.2-45.6,4.9L401,488l45.6-4.8m1.3-1.6-1.4.2-45.6,4.9-1.4.2.2,1.4,4.8,45.2.2,1.4,1.4-.2,45.6-4.9,1.4-.2-.2-1.4L448,483l-.1-1.4Z" fill="#f7f7f7"/>
      </g>
      <path id="XMLID_88_" d="M444.1,507.6c-1.1.9-2.1,1.7-3.1,2.5-.2-.2-.4-.5-.6-.7a2.728,2.728,0,0,0-2.7-.8,1.825,1.825,0,0,0-1.4,1.4,1.7,1.7,0,0,0,.7,1.9,16.315,16.315,0,0,0,1.9.9c1.5.6,3,1,4.4,1.7a6.038,6.038,0,0,1,3.3,6.5,5.053,5.053,0,0,1-2.5,3.8,9.347,9.347,0,0,1-9.8.2,7.465,7.465,0,0,1-2.5-2.5l3.3-2.4a6.466,6.466,0,0,1,.8.9,4.328,4.328,0,0,0,4.9.9,1.831,1.831,0,0,0,1.3-1.8,1.961,1.961,0,0,0-1.2-1.9c-1.1-.4-2.2-.8-3.4-1.2-.9-.4-1.9-.7-2.8-1.2a5.836,5.836,0,0,1-2.9-6.3,5.744,5.744,0,0,1,4.8-4.6c2.8-.5,5.2-.1,7.1,2.3C443.9,507.3,443.9,507.4,444.1,507.6Z" fill="#303030"/>
      <path id="XMLID_87_" d="M420.1,522c.4.4.6.8.9,1.1a2.548,2.548,0,0,0,2.5.7,1.728,1.728,0,0,0,1.5-1.7v-1.3c-.5-4.5-.9-9-1.5-13.5-.1-.7.1-.9.8-1a12.414,12.414,0,0,0,2.7-.3c.6-.1.8.1.9.7.4,4.4.9,8.7,1.4,13.1,0,.5.1.9.1,1.4.2,3.6-1.4,5.7-4.9,6.5a6.957,6.957,0,0,1-7.4-2.6c-.3-.5-.3-.7.2-1C418.2,523.5,419.1,522.8,420.1,522Z" fill="#303030"/>
    </g>
    <g id="XMLID_4_">
      <g id="XMLID_84_">
        <circle id="XMLID_128_" cx="9.7" cy="9.7" r="9.7" transform="translate(193.5 182.3)" fill="#cce9ff"/>
      </g>
      <g id="XMLID_86_">
        <circle id="XMLID_109_" cx="9.7" cy="9.7" r="9.7" transform="translate(223.9 182.3)" fill="#cce9ff"/>
      </g>
      <circle id="XMLID_89_" cx="8.5" cy="8.5" r="8.5" transform="translate(255.4 183.3)" fill="#cce9ff"/>
    </g>
    <path id="XMLID_131_" d="M571.8,572H536.4L532,505.4h44.1Z" fill="#0e538c"/>
    <path id="XMLID_42_" d="M574.7,502.2H533.4l1.5-7.6h38.4Z" fill="#2a94f4"/>
    <path id="XMLID_38_" d="M578.4,508.2H529.8l1.4-7.7h45.7Z" fill="#0b4870"/>
    <g id="XMLID_151_">
      <g id="Groupe_1" data-name="Groupe 1" transform="translate(528.8 523.7)" clip-path="url(#clip-path)">
        <rect id="XMLID_44_" width="50.7" height="25.4" fill="#ededed"/>
      </g>
    </g>
    <ellipse id="XMLID_1_" cx="42.3" cy="61.3" rx="42.3" ry="61.3" transform="translate(353.6 241.4)" fill="#fcd2b1"/>
    <ellipse id="XMLID_3_" cx="47.4" cy="22.5" rx="47.4" ry="22.5" transform="translate(348.7 233.5)" fill="#192541"/>
    <path id="XMLID_5_" d="M476.8,423.5" fill="#ffbe55"/>
    <text id="REG" transform="translate(539.152 541.567)" fill="#303030" font-size="12" font-family="SegoeUI, Segoe UI"><tspan x="0" y="0">G&amp;Co</tspan></text>
  </g>
</svg>
